<svg xmlns="http://www.w3.org/2000/svg" data-name="Layer 1" viewBox="0 0 100 125" x="0px" y="0px"><title>Agnoli-Noun Project-Galentines Day</title><path d="M50.67,85.15218l-.001-.00586L48.12512,77.16,50.67,69.17269a1.907,1.907,0,0,0-.001-1.13282l-2.54395-7.9834.9043-2.83691a.99345.99345,0,0,0,.02441-.5127,19.18865,19.18865,0,0,0-1.1914-3.96386,16.01486,16.01486,0,0,0-9.09766-8.33594,16.36639,16.36639,0,0,0-1.73669-.51691,3.7699,3.7699,0,0,0,.36145-4.05c5.302-4.48877,8.5382-19.08912,9.48364-33.59034a1.00019,1.00019,0,0,0-1.9961-.13086c-1.17541,18.03528-5.07446,29.10566-8.811,32.218a3.8451,3.8451,0,0,0-4.251,0c-3.73657-3.11236-7.63562-14.18274-8.811-32.218a1.00019,1.00019,0,0,0-1.9961.13086c.94544,14.50122,4.18164,29.10157,9.48365,33.59034a3.77489,3.77489,0,0,0,.18567,3.80566,16.18275,16.18275,0,0,0-4.24061,1.29932,16.12325,16.12325,0,0,0-7.79785,21.42578C21.60266,72.72737,39.56067,88.89632,45.837,93.92757a3.42494,3.42494,0,0,0,.60546.43945.52937.52937,0,0,0,.04688.02539,2.91636,2.91636,0,0,0,.31641.1543l.10156.041a1.00128,1.00128,0,0,0,.79492-.02929,1.00309,1.00309,0,0,0,.52246-.59864L50.67,86.28108A1.90179,1.90179,0,0,0,50.67,85.15218ZM32.19665,40.893a4.47316,4.47316,0,0,0,3.4878,0,1.876,1.876,0,1,1-3.4878,0ZM46.72473,92.076c-7.91406-6.41993-23.82324-21.29688-26.27344-26.55079A14.12242,14.12242,0,1,1,46.04993,53.5887a16.7858,16.7858,0,0,1,.99218,3.27832l-.91992,2.88574a1.00736,1.00736,0,0,0,0,.60743l2.64063,8.21093-2.64063,8.28516a1.00733,1.00733,0,0,0,0,.60742l2.62891,8.25195ZM81.89954,54.0428a15.99022,15.99022,0,0,0-12.311-10.33764,3.794,3.794,0,0,0,.218-3.865c5.302-4.48877,8.53821-19.08912,9.48364-33.59034A1.00019,1.00019,0,0,0,77.29407,6.119c-1.17542,18.03528-5.07447,29.10566-8.811,32.218a3.8454,3.8454,0,0,0-4.25134.00012C60.49451,35.22493,56.59558,24.1545,55.421,6.119a1.00019,1.00019,0,0,0-1.99609.13086c.94458,14.50147,4.1809,29.10193,9.48352,33.59052a3.77564,3.77564,0,0,0,.32873,4.01,16.16083,16.16083,0,0,0-11.12671,8.95318,1.20348,1.20348,0,0,0-.05078.12793l-2.17383,6.82129a1.00736,1.00736,0,0,0,0,.60743l2.64063,8.21093-2.64063,8.28516a1.00733,1.00733,0,0,0,0,.60742l2.64063,8.21387-2.44434,7.6748a1.04929,1.04929,0,0,0,.66016,1.26172c.07617.02832.15234.05274.22266.07324.083.02442.166.04395.25878.06348.06739.0127.13379.02441.17969.03027.08594.0127.17188.02246.26758.02832.07031.00391.13965.00586.21094.00586s.14062-.00195.21875-.00586c.08789-.00586.17383-.01562.23828-.02539.06738-.00879.13379-.0205.21094-.03515.083-.01758.166-.03711.24218-.05957.0752-.02149.14942-.0459.22657-.07325.05859-.02148.11816-.04394.15722-.06152a3.02025,3.02025,0,0,0,.335-.16211.528.528,0,0,0,.04688-.02539,3.105,3.105,0,0,0,.55664-.39844c6.32422-5.07226,24.28223-21.23925,27.24707-27.59765A16.01732,16.01732,0,0,0,81.89954,54.0428ZM64.61365,40.893a4.47348,4.47348,0,0,0,3.48779-.00006,1.876,1.876,0,1,1-3.48779.00006ZM79.549,65.52522C77.05481,70.87288,60.62317,86.18538,52.81262,92.452a1.50219,1.50219,0,0,1-.22461.166l-.02832.01465a1.33627,1.33627,0,0,1-.17578.084L54.43176,86.286a1.89108,1.89108,0,0,0,.001-1.13965L51.88879,77.16l2.544-7.98242a1.89993,1.89993,0,0,0,0-1.1377l-2.544-7.9834,2.06055-6.46777A14.12286,14.12286,0,0,1,79.549,65.52522Z"/><text x="0" y="115" fill="#000000" font-size="5px" font-weight="bold" font-family="'Helvetica Neue', Helvetica, Arial-Unicode, Arial, Sans-serif">Created by Erin Agnoli</text><text x="0" y="120" fill="#000000" font-size="5px" font-weight="bold" font-family="'Helvetica Neue', Helvetica, Arial-Unicode, Arial, Sans-serif">from the Noun Project</text></svg>