<svg xmlns="http://www.w3.org/2000/svg" xmlns:xlink="http://www.w3.org/1999/xlink" version="1.0" id="Layer_1" x="0px" y="0px" width="100px" height="95.152px" viewBox="0 0 100 95.152" enable-background="new 0 0 100 95.152" xml:space="preserve">
<path fill-rule="evenodd" clip-rule="evenodd" d="M75.754 91.754c-11.632 1.836-9.73-4.492-9.864-11.711l-0.686-14.15l-2.987 13.7 c-0.545 2.594-1.23 5 2.4 6.876c2.59 2.248-0.332 5.448-3.121 5.037c-8.518 0.277-7.284-5.376-6.548-9.385l0.479-5.79 c0.343-3.944 1.093-6.4 1.295-11.913l-1.15-2.988c-9.188-2.381-15.524-4.152-22.664-7.962l-5.114 0.7 c-2.311 0.342-1.692 3.066-1.966 4.834l-0.747 4.827l-4.228 10.961l-0.331 0.952c-0.279 0.754-0.211 3.7 0.9 5.304l2.237 4.6 c1.77 2.6 2.2 8.987-2.515 6.938l-3.541-1.49c-2.513-1.021-4.562-8.028-5.436-13.133l0.069-7.151 c-2.183-0.675-3.07 12.191-2.183 14.836l2.183 6.675c0.671 2.168-1.84 2.922-3.61 2.922c-4.154 0-5.992-4.218-6.876-7.76 l-0.675-2.646c-1.03-4.084-0.488-10.285 1.625-13.894l0.951-2.233c1.903-4.431-0.41-7.631-0.951-9.878 c-1.77-7.216-3.2-14.225 1.771-21.167l0.346-0.475c-0.144-0.542-1.576-1.695-2.46-4.417c-1.907-6.133-3.608-16.197-1.22-16.197 l1.562-0.077c4.021 0 2.9 16.6 7.6 15.522l34.574 0.343l6.056-1.64c2.25-0.606 4.152-2.035 6.122-3.264l3.94-2.447 c4.561 4.6 8.5 7.4 15 9.732c1.774 13.537-0.199 16.54-1.902 24.628l-0.688 3.269c-1.216 5.787-1.627 11.779-1.35 17.7 l0.134 2.789c-0.065 2.9 1.6 3.1 3.8 3.741C77.526 87.5 78.5 90.4 75.8 91.754L75.754 91.754L75.754 91.754z"/>
<path fill-rule="evenodd" clip-rule="evenodd" d="M83.062 9.073c1.901 1.3 4.3 3.6 6.2 5.646l2.388 2.6 c1.562 1.6 3.9 1.4 6.1 1.834l0.743 0.135c2.312 1.2 1.6 3.7 0.8 5.512l-0.477 1.2 c-2.183 5.247-8.645 5.657-13.208 3.198l-2.035-1.083H82.85l-1.422 0.952l-2.927 2.314c-5.92-2.591-10.751-5.714-14.637-9.866 l8.922-11.167l2.991-4.352l0.61-1.43l0.686-1.572c0.544-1.759 2.788-3.464 4.43-2.789c1.559 0.7 2.6 3.7 2.2 5.2 l-0.408 1.77L83.062 9.073L83.062 9.073L83.062 9.073z"/>
</svg>
